PathFileType	4	(X/Y/Z)	/Users/itak/Documents/Research/Walk-IL/dataset/trc/00467_00167.trc
DataRate	CameraRate	NumFrames	NumMarkers	Units	OrigDataRate	OrigDataStartFrame	OrigNumFrames
100.000000	100.000000	4	53	mm	100.000000	380	608
Frame#	Time	RPSI			LPSI			L3			STRN			T10			C7			CLAV			RBAK			LBAK			LSHO			LUPA			LAEL			LAOL			LWTS			LWPS			LFRA			LIFD			LHPS			LHTS			RSHO			RUPA			RAEL			RAOL			RWTS			RWPS			RFRA			RIFD			RHTS			RHPS			RBHD			LFHD			RFHD			LBHD			LHIP			RHIP			RASI			LASI			LKNE			LTHI			LANK			LTIP			LTOE			LMT1			LMT5			LHEE			RKNE			RTHI			RANK			RTIP			RTOE			RMT1			RMT5			RHEE			
		X1	Y1	Z1	X2	Y2	Z2	X3	Y3	Z3	X4	Y4	Z4	X5	Y5	Z5	X6	Y6	Z6	X7	Y7	Z7	X8	Y8	Z8	X9	Y9	Z9	X10	Y10	Z10	X11	Y11	Z11	X12	Y12	Z12	X13	Y13	Z13	X14	Y14	Z14	X15	Y15	Z15	X16	Y16	Z16	X17	Y17	Z17	X18	Y18	Z18	X19	Y19	Z19	X20	Y20	Z20	X21	Y21	Z21	X22	Y22	Z22	X23	Y23	Z23	X24	Y24	Z24	X25	Y25	Z25	X26	Y26	Z26	X27	Y27	Z27	X28	Y28	Z28	X29	Y29	Z29	X30	Y30	Z30	X31	Y31	Z31	X32	Y32	Z32	X33	Y33	Z33	X34	Y34	Z34	X35	Y35	Z35	X36	Y36	Z36	X37	Y37	Z37	X38	Y38	Z38	X39	Y39	Z39	X40	Y40	Z40	X41	Y41	Z41	X42	Y42	Z42	X43	Y43	Z43	X44	Y44	Z44	X45	Y45	Z45	X46	Y46	Z46	X47	Y47	Z47	X48	Y48	Z48	X49	Y49	Z49	X50	Y50	Z50	X51	Y51	Z51	X52	Y52	Z52	X53	Y53	Z53	

381	3.8	452.6959228515625	937.3593139648438	-409.80517578125	428.9189758300781	924.5944213867188	-268.1183166503906	421.3668212890625	1029.350708007812	-366.8847351074219	127.2980270385742	1194.510864257812	-379.9243469238281	417.2624206542969	1154.144897460938	-371.3364868164062	324.2100524902344	1414.6572265625	-388.4095764160156	151.1737213134766	1310.10205078125	-371.5911560058594	399.2904357910156	1303.10693359375	-482.9649353027344	364.3624572753906	1368.665283203125	-291.9496459960938	264.7319946289062	1378.5908203125	-208.9474029541016	306.5846557617188	1269.477294921875	-109.4165496826172	321.636474609375	1058.812744140625	-72.66985321044922	398.4817199707031	1042.08984375	-140.911865234375	180.8506164550781	917.3721313476562	-163.2219085693359	216.9030303955078	872.076171875	-116.2840423583984	273.4046020507812	980.8562622070312	-83.74847412109375	111.6826705932617	775.73974609375	-176.4813690185547	179.4356536865234	809.0706176757812	-127.6484527587891	130.5533294677734	848.1434936523438	-165.0490875244141	259.9363098144531	1380.488159179688	-546.899658203125	282.312744140625	1324.811767578125	-625.217041015625	290.9055480957031	1039.837890625	-693.9559326171875	346.146728515625	1021.710998535156	-659.7119750976562	193.0171813964844	833.9988403320312	-635.765625	249.58154296875	822.0718994140625	-703.5208129882812	285.37890625	980.81201171875	-703.5462036132812	189.9700622558594	677.9481201171875	-653.0259399414062	175.8462371826172	737.5781860351562	-646.60546875	232.6204376220703	733.5816650390625	-699.81640625	218.0618896484375	1594.82861328125	-474.9212646484375	85.383544921875	1605.449462890625	-316.7431030273438	83.13432312011719	1599.708129882812	-447.6094360351562	237.1066589355469	1609.213500976562	-298.9609680175781	261.3250732421875	828.7987060546875	-178.9678802490234	376.0916442871094	830.3358154296875	-572.18994140625	255.4585876464844	852.4210815429688	-531.4506225585938	198.0173187255859	863.7075805664062	-287.0029907226562	77.72462463378906	454.9467468261719	-233.1526489257812	118.4809265136719	601.736328125	-216.9158172607422	60.99927139282227	39.56749725341797	-197.7842864990234	49.40346527099609	306.0774841308594	-210.6826934814453	-147.8711853027344	70.36713409423828	-312.7710876464844	-68.82569122314453	60.97381591796875	-327.4739074707031	-86.71333312988281	62.17134094238281	-216.5965881347656	116.9717025756836	35.23340606689453	-251.8426361083984	444.6944580078125	447.7587890625	-537.44873046875	354.3463134765625	688.6942749023438	-580.2944946289062	665.77001953125	66.74031066894531	-548.1265869140625	499.2212524414062	309.987548828125	-543.1035766601562	571.169921875	36.70402526855469	-351.9943542480469	627.0831909179688	58.57312393188477	-384.2558898925781	562.36181640625	38.94962692260742	-462.562744140625	742.5889892578125	100.5581893920898	-556.8843383789062	
382	3.81	443.44482421875	937.712890625	-406.9990539550781	418.4851379394531	924.862060546875	-265.4064636230469	411.1083679199219	1028.501098632812	-363.2909545898438	117.9208908081055	1194.384765625	-378.8986206054688	408.1227722167969	1153.358276367188	-366.2738342285156	315.7699890136719	1414.29931640625	-383.2490539550781	141.7633056640625	1309.987670898438	-369.7593383789062	392.0012512207031	1302.59912109375	-476.8621520996094	354.2781677246094	1367.779174804688	-286.3155517578125	253.3782043457031	1377.559326171875	-204.9974975585938	293.5426025390625	1267.706787109375	-105.5496826171875	308.6051025390625	1056.717163085938	-69.5439453125	386.2295837402344	1040.80224609375	-136.96630859375	171.0726776123047	912.6420288085938	-160.5630340576172	207.4499816894531	868.1575317382812	-113.1011962890625	261.771240234375	977.9860229492188	-80.65122222900391	104.1244506835938	770.1294555664062	-173.6398010253906	171.0182800292969	804.5550537109375	-124.4206390380859	121.8477172851562	842.7777099609375	-162.3478088378906	254.2183380126953	1380.99169921875	-542.9508056640625	278.2587585449219	1325.42529296875	-620.8755493164062	289.6343078613281	1041.032470703125	-690.8256225585938	344.0929870605469	1023.067138671875	-655.12841796875	192.1207275390625	834.0230712890625	-637.0853271484375	250.7754364013672	823.0361938476562	-703.1299438476562	284.8878784179688	982.025146484375	-700.9965209960938	190.9995574951172	678.0211791992188	-655.8316650390625	176.44189453125	737.5814208984375	-649.0951538085938	234.1977691650391	734.3618774414062	-700.6095581054688	210.8111114501953	1595.159301757812	-471.3970947265625	76.61990356445312	1605.569702148438	-314.4497985839844	75.61245727539062	1600.044311523438	-445.2939758300781	228.1490936279297	1609.224609375	-295.2131958007812	251.0071868896484	827.5277099609375	-178.1391296386719	368.7424926757812	830.7286987304688	-570.4462280273438	247.4363861083984	852.107666015625	-530.6678466796875	188.044677734375	861.9876098632812	-286.4623107910156	72.76488494873047	451.9182434082031	-233.3377838134766	112.1737899780273	597.7125244140625	-216.208251953125	59.9079704284668	38.38615417480469	-197.94677734375	44.92871475219727	303.3157958984375	-211.5012817382812	-149.866943359375	61.85959243774414	-314.6056213378906	-70.01374816894531	55.21554565429688	-328.6092529296875	-88.79286956787109	56.06269073486328	-217.5889739990234	116.313720703125	35.88644409179688	-251.8552398681641	439.7801513671875	448.7196960449219	-537.3164672851562	347.9263916015625	689.0843505859375	-579.7145385742188	664.7438354492188	68.72036743164062	-547.7802124023438	495.6374816894531	311.6992492675781	-543.4677734375	570.8482055664062	36.59363174438477	-352.2461547851562	626.0016479492188	59.26424026489258	-384.1908569335938	562.0468139648438	38.53489303588867	-462.7027587890625	740.619384765625	104.7401657104492	-555.8544311523438	
383	3.82	434.2360229492188	938.2726440429688	-404.8995666503906	408.5017395019531	925.7084350585938	-263.3443603515625	400.9006652832031	1028.21142578125	-360.2277221679688	108.3034591674805	1194.488403320312	-377.7001647949219	398.8997802734375	1152.954711914062	-361.4944152832031	307.0090026855469	1414.2412109375	-378.0621337890625	132.1460266113281	1310.121215820312	-367.8522338867188	384.3532409667969	1302.429321289062	-470.7788696289062	343.935302734375	1367.20703125	-280.6666259765625	241.7893218994141	1376.719360351562	-201.0429229736328	280.173828125	1266.0478515625	-101.7570190429688	295.1392822265625	1054.732177734375	-66.45791625976562	373.625	1039.62548828125	-132.9182739257812	161.1501159667969	907.9142456054688	-157.8775482177734	197.8347015380859	864.2924194335938	-109.8509216308594	249.8096923828125	975.2096557617188	-77.54357147216797	96.59613037109375	764.5111694335938	-170.8138732910156	162.4648742675781	800.058349609375	-121.1195297241211	113.0586013793945	837.3994750976562	-159.611083984375	248.0834503173828	1381.779541015625	-538.9082641601562	273.8035888671875	1326.2998046875	-616.3662109375	288.2751159667969	1042.5595703125	-687.516357421875	341.9152526855469	1024.784790039062	-650.365234375	191.1885833740234	834.5055541992188	-638.3008422851562	251.956787109375	824.3828125	-702.4970092773438	284.3932800292969	983.6204223632812	-698.2778930664062	192.0668029785156	678.5576782226562	-658.3063354492188	177.0101623535156	738.0311279296875	-651.4510498046875	236.0707550048828	735.7713012695312	-701.1947021484375	203.3557434082031	1595.749145507812	-467.7463989257812	67.66478729248047	1606.0009765625	-312.0415954589844	67.91387176513672	1600.707275390625	-442.8665466308594	218.9918670654297	1609.4716796875	-291.3609619140625	241.2206115722656	827.0697021484375	-177.3974151611328	360.9281311035156	831.0319213867188	-568.88134765625	239.1416015625	851.940673828125	-529.7859497070312	178.3738250732422	861.027587890625	-285.7544250488281	67.50257110595703	450.0261535644531	-233.1073303222656	105.97021484375	594.7735595703125	-214.8281707763672	57.97406768798828	37.94841384887695	-198.0272369384766	39.87485885620117	301.6353149414062	-211.9793853759766	-152.3212127685547	54.83005142211914	-316.3878784179688	-71.81027221679688	50.93478775024414	-329.5536804199219	-91.62782287597656	51.09657287597656	-218.3857879638672	114.8360595703125	37.31397247314453	-251.7565765380859	434.1920471191406	449.6802673339844	-537.0764770507812	341.0545349121094	689.4909057617188	-579.0759887695312	663.4000854492188	70.85329437255859	-547.400634765625	491.4155883789062	313.4516906738281	-543.78271484375	570.4154663085938	36.48004531860352	-352.4541931152344	624.7125244140625	60.0963134765625	-384.1355285644531	561.5942993164062	38.06184768676758	-462.8234252929688	738.1392211914062	109.2729949951172	-554.8201293945312	
384	3.83	425.1291809082031	939.068359375	-403.5540466308594	399.0611267089844	927.1448974609375	-261.9907531738281	390.8580017089844	1028.56884765625	-357.7393188476562	98.50000762939453	1194.85205078125	-376.3235473632812	389.6475219726562	1152.9755859375	-357.07421875	297.9686279296875	1414.50439453125	-372.9051818847656	122.3836212158203	1310.519897460938	-365.8663635253906	376.3728942871094	1302.655395507812	-464.8013305664062	333.3968200683594	1366.974365234375	-275.0609436035156	230.0291137695312	1376.10693359375	-197.1204223632812	266.5360717773438	1264.555297851562	-98.070556640625	281.2606201171875	1052.911865234375	-63.43666076660156	360.6842956542969	1038.600341796875	-128.7894287109375	151.089111328125	903.243408203125	-155.1641082763672	188.0550384521484	860.5416870117188	-106.5235977172852	237.5238189697266	972.5879516601562	-74.44173431396484	89.11117553710938	758.94921875	-168.0030212402344	153.7709197998047	795.6441650390625	-117.7343139648438	104.1903839111328	832.0692749023438	-156.8404693603516	241.5121765136719	1382.870849609375	-534.8143310546875	268.920654296875	1327.501708984375	-611.7633666992188	286.8193359375	1044.471557617188	-684.0387573242188	339.578857421875	1026.90185546875	-645.4215698242188	190.2317352294922	835.4561157226562	-639.3934936523438	253.1237335205078	826.1369018554688	-701.614013671875	283.8621215820312	985.6348876953125	-695.37939453125	193.1381988525391	679.5862426757812	-660.4072875976562	177.5350036621094	738.947509765625	-653.6656494140625	238.1998901367188	737.785888671875	-701.555908203125	195.6989898681641	1596.585815429688	-463.9858703613281	58.53643035888672	1606.71875	-309.5274047851562	60.04572296142578	1601.680419921875	-440.3361206054688	209.6581878662109	1609.935913085938	-287.4254150390625	232.0634918212891	827.4991455078125	-176.7344207763672	352.7322692871094	831.2822875976562	-567.5377807617188	230.6283874511719	851.9474487304688	-528.7764282226562	169.0739440917969	860.9353637695312	-284.8705444335938	61.94609069824219	449.1907348632812	-232.4699554443359	99.68220520019531	593.1953735351562	-212.9654541015625	55.8066520690918	37.92487335205078	-197.9733428955078	34.61549758911133	300.7870483398438	-212.0220489501953	-154.6875152587891	49.39252090454102	-317.8787231445312	-73.72209167480469	48.04329681396484	-330.1596984863281	-94.56304168701172	47.29986572265625	-218.8464508056641	113.0801544189453	38.9880485534668	-251.5134124755859	427.8260498046875	450.5794677734375	-536.7301025390625	333.7698669433594	689.9160766601562	-578.3555908203125	661.7221069335938	73.14124298095703	-546.9729614257812	486.4661865234375	315.1972045898438	-544.049560546875	569.8701171875	36.35763931274414	-352.6005249023438	623.1604614257812	61.08978652954102	-384.077880859375	561.0314331054688	37.50261688232422	-462.9396667480469	735.0912475585938	114.1778564453125	-553.7623291015625	
